<svg width="65" height="84" viewBox="0 0 65 84" fill="none" xmlns="http://www.w3.org/2000/svg">
<path d="M20.5965 80.801H6.8035C4.53961 80.801 2.6976 78.9592 2.6976 76.6953V6.75369C2.6976 4.48981 4.53961 2.64779 6.8035 2.64779H46.5399C46.6682 2.64779 46.7946 2.65957 46.9196 2.67645V10.9336C46.9196 14.6577 49.9494 17.6873 53.6733 17.6873H61.9302C61.9473 17.8124 61.9589 17.9388 61.9589 18.0671V40.613C61.9589 41.3443 62.5516 41.937 63.2829 41.937C64.0141 41.937 64.6069 41.3443 64.6069 40.613V18.0673C64.6069 16.615 64.0412 15.2496 63.0143 14.2225L50.3844 1.59258C49.3575 0.565664 47.9922 0 46.5399 0H6.8035C3.07939 0 0.0498047 3.02977 0.0498047 6.75369V76.6953C0.0498047 80.4192 3.07957 83.4488 6.8035 83.4488H20.5965C21.3278 83.4488 21.9205 82.8561 21.9205 82.1248C21.9205 81.3936 21.3278 80.801 20.5965 80.801ZM60.0867 15.0395H53.6735C51.4096 15.0395 49.5676 13.1975 49.5676 10.9336V4.52039L60.0867 15.0395Z" fill="#ffffff"/>
</svg>
