<svg width="80" height="86" viewBox="0 0 80 86" fill="none" xmlns="http://www.w3.org/2000/svg">
<path d="M72.9265 0.0739063H49.7015C46.1775 0.0739063 43.3103 2.94012 43.3103 6.46344V24.6466C40.2776 22.1178 36.4926 20.7404 32.4953 20.7404C27.9752 20.7404 23.7258 22.5006 20.5295 25.6969C18.8708 27.3556 17.6295 29.2759 16.8048 31.3262H6.34538C4.61715 31.3262 3.21109 29.9201 3.21109 28.1919V12.1142H34.3023V16.2061C34.3023 16.9019 34.8661 17.4659 35.562 17.4659C36.2579 17.4659 36.8218 16.9019 36.8218 16.2061V5.65383V5.65332C36.8216 2.53599 34.2863 0 31.1698 0H31.1693H6.34538H6.34471C3.22738 0 0.69122 2.53599 0.69122 5.65332L0.691388 28.1919C0.691388 31.3094 3.22772 33.8457 6.34522 33.8457H16.0148C14.751 39.3433 16.255 45.3541 20.5293 49.6286C20.784 49.8832 21.0458 50.1276 21.3134 50.3638H3.21092V46.3621C3.21109 44.8739 4.49269 43.2132 6.34522 43.2452H11.5301C12.226 43.2452 12.7898 42.6812 12.7898 41.9855C12.7898 41.2897 12.226 40.7257 11.5301 40.7257H6.36033C3.65234 40.5771 0.532321 43.3153 0.691388 46.3762V51.6235V80.3479C0.691388 83.4645 3.22772 86 6.34522 86H31.1693C34.286 86 36.8215 83.4645 36.8215 80.3479V54.0287C39.2874 53.3811 41.5772 52.1803 43.5379 50.4869L46.5673 53.5162L46.5358 53.5478C44.6995 55.384 44.6995 58.3717 46.5358 60.2079L52.2131 65.8852C53.1027 66.7748 54.2853 67.2646 55.5433 67.2646C56.8012 67.2646 57.9838 66.7746 58.8731 65.8854L60.7177 64.0409C61.6071 63.1515 62.0971 61.9689 62.0971 60.7108C62.0971 59.4529 61.6071 58.2702 60.7177 57.3808L55.0402 51.7035C54.1506 50.8139 52.968 50.3241 51.71 50.3241C50.4523 50.3241 49.2696 50.8139 48.3801 51.7035L48.3487 51.7349L45.3193 48.7056C47.9709 45.6358 49.4174 41.7606 49.4174 37.663C49.4174 36.3463 49.2669 35.0529 48.9764 33.8015C49.2164 33.8289 49.4581 33.8459 49.7013 33.8459H53.0808V39.9801C53.0145 42.4061 56.4508 43.6527 57.9269 41.3878L62.7175 33.8459H72.9265C76.4488 33.8459 79.3142 30.9797 79.3142 27.4563V6.46344C79.3142 2.94012 76.4488 0.0739063 72.9265 0.0739063ZM31.1695 2.51953C32.8969 2.51953 34.3021 3.9256 34.3021 5.65383V9.59454H3.21092V5.65383C3.21092 3.9256 4.61699 2.51953 6.34522 2.51953H31.1695ZM51.7104 52.8435C52.2952 52.8435 52.8453 53.0712 53.2589 53.4848L58.9364 59.1621C59.3501 59.5757 59.5779 60.1258 59.5779 60.7106C59.5779 61.2955 59.3501 61.8456 58.9366 62.2591L57.0919 64.1036C56.6784 64.5171 56.1286 64.7449 55.5436 64.7449C54.9586 64.7449 54.4086 64.5171 53.9951 64.1036L48.3177 58.4263C47.904 58.0127 47.6763 57.4626 47.6763 56.8777C47.6763 56.2929 47.904 55.7428 48.3177 55.3292L50.162 53.4849C50.5756 53.0711 51.1255 52.8435 51.7104 52.8435ZM34.3021 80.3479C34.3021 82.0752 32.8969 83.4805 31.1695 83.4805H6.34538C4.61715 83.4805 3.21109 82.0752 3.21109 80.3479V52.8833H25.0826C27.8024 54.2143 31.0865 54.8321 34.3023 54.4892V80.3479H34.3021ZM42.6795 47.8469C37.064 53.4628 27.9267 53.4624 22.3111 47.8469C16.6954 42.2312 16.6954 33.0939 22.3111 27.4783C25.1189 24.6706 28.8072 23.2667 32.4954 23.2667C36.1835 23.2667 39.8718 24.6706 42.6795 27.4783C48.2952 33.094 48.2952 42.2314 42.6795 47.8469ZM76.7947 27.4562C76.7947 29.59 75.0594 31.3262 72.9265 31.3262H62.0253C61.5943 31.3262 61.1931 31.5465 60.9619 31.9105L55.7998 40.0377C55.7354 40.1336 55.6024 40.1101 55.6005 39.9801L55.5999 27.5492C55.5999 26.8535 55.036 26.2895 54.3401 26.2895C53.6442 26.2895 53.0803 26.8535 53.0803 27.5492V31.3262H49.7015C49.1233 31.3262 48.5558 31.1955 48.0377 30.9492C47.4682 29.6314 46.7289 28.3857 45.8298 27.2402V6.46344C45.8298 4.32956 47.5666 2.59344 49.7015 2.59344H72.9267C75.0595 2.59344 76.7948 4.32956 76.7948 6.46344V27.4562H76.7947Z" fill="#ffffff"/>
</svg>
