<svg width="90" height="90" viewBox="0 0 90 90" fill="none" xmlns="http://www.w3.org/2000/svg">
<g clip-path="url(#clip0_1433_16459)">
<path d="M20.7025 30.6467C20.017 29.9612 18.9025 29.9612 18.2171 30.6467C17.5298 31.334 17.5298 32.4467 18.2171 33.1323C18.9027 33.8196 20.0171 33.8196 20.7025 33.1323C21.3896 32.4467 21.3896 31.334 20.7025 30.6467Z" fill="#ffffff"/>
<path d="M44.5077 78.7005C45.2827 77.6508 45.7016 76.386 45.7016 75.0562C45.7016 71.664 42.9419 68.9041 39.5495 68.9041H9.66764C8.02355 68.9041 6.47861 69.5439 5.31722 70.7056C4.1553 71.8672 3.51546 73.4121 3.51546 75.0562C3.51546 76.4184 3.96124 77.678 4.71341 78.6984C1.91444 80.1701 0 83.1056 0 86.4815V88.2393C0 89.2102 0.78715 89.9971 1.75782 89.9971H47.4593C48.4299 89.9971 49.2171 89.2102 49.2171 88.2393V86.4815C49.2171 83.1072 47.3046 80.1729 44.5077 78.7005ZM7.80294 73.1912C8.30058 72.6934 8.96293 72.4193 9.66764 72.4193H39.5495C41.0033 72.4193 42.186 73.6022 42.186 75.0559C42.186 75.7608 41.9118 76.4229 41.414 76.9207C40.9163 77.4186 40.254 77.6926 39.5493 77.6926H9.66764C8.21375 77.6926 7.03109 76.5098 7.03109 75.0561C7.03109 74.3513 7.30513 73.689 7.80294 73.1912ZM3.51546 86.4815C3.51546 83.5739 5.88112 81.2082 8.78873 81.2082H9.66764H39.5495H40.4284C43.336 81.2082 45.7016 83.5739 45.7016 86.4815H3.51546Z" fill="#ffffff"/>
<path d="M88.3638 73.8501C87.7669 72.925 87.0546 72.1069 86.2466 71.4185L78.0332 64.2549C77.9692 64.1586 77.895 64.0672 77.8101 63.9823C77.6674 63.8397 77.5056 63.7284 77.3337 63.6451L72.3667 59.313L49.3762 39.2579C50.3174 38.274 50.8356 36.9875 50.8356 35.6194C50.8356 34.21 50.2869 32.8855 49.2897 31.8884C48.8548 31.4541 48.3606 31.1125 47.8323 30.8624L49.9593 28.7354C50.5538 28.8935 51.1646 28.9743 51.776 28.9743C53.5762 28.9741 55.3765 28.2889 56.7469 26.9186C58.0755 25.5902 58.8071 23.8244 58.8071 21.9466C58.8071 20.0687 58.0755 18.303 56.7471 16.9746L41.8324 2.06023C40.504 0.731847 38.7381 0.000244141 36.8597 0.000244141C34.9822 0.000244141 33.2168 0.731847 31.8886 2.06023C30.0527 3.89609 29.4484 6.50276 30.0717 8.84803L8.8505 30.0691C8.26409 29.9132 7.65396 29.8309 7.03063 29.8309C5.15188 29.8309 3.38686 30.562 2.05953 31.8891C-0.681954 34.6306 -0.681954 39.0914 2.05953 41.8331L16.9741 56.7478C18.345 58.1186 20.1455 58.8039 21.946 58.8039C23.7467 58.8039 25.5473 58.1186 26.9182 56.7478C28.7541 54.9118 29.3584 52.3053 28.7351 49.96L30.8576 47.8373C31.1127 48.3699 31.4588 48.8614 31.8888 49.2912C32.8847 50.2871 34.2089 50.8357 35.618 50.8357C36.9847 50.8357 38.2707 50.3184 39.2559 49.3783L63.7434 77.5129C63.8109 77.6184 63.8896 77.7187 63.9817 77.8108C64.0132 77.8423 64.0466 77.871 64.0798 77.8994L71.3767 86.2832C71.5581 86.4973 71.752 86.7078 71.9532 86.9091C73.9573 88.9125 76.6044 89.9997 79.3835 89.9997C79.8734 89.9997 80.3679 89.966 80.8631 89.8974C84.1729 89.4393 87.0334 87.4593 88.7107 84.4643C90.5481 81.182 90.4113 77.0147 88.3638 73.8501ZM34.3747 4.54613C35.039 3.88185 35.9217 3.51588 36.8599 3.51588C37.7992 3.51588 38.6825 3.88185 39.3467 4.54613L54.2614 19.4607C54.9256 20.1249 55.2914 21.0079 55.2914 21.9467C55.2914 22.8856 54.9256 23.7685 54.2612 24.4328C52.891 25.8034 50.661 25.8034 49.2908 24.4328L34.3756 9.51759C34.3752 9.51723 34.375 9.51706 34.3747 9.51671C33.0041 8.14631 33.0041 5.91652 34.3747 4.54613ZM24.4323 54.2619C23.0616 55.6327 20.8307 55.6328 19.46 54.2619L4.54544 39.3474C3.17452 37.9764 3.17452 35.7461 4.54544 34.375C5.20848 33.7118 6.09126 33.3465 7.03063 33.3465C7.96983 33.3465 8.85208 33.7116 9.51495 34.3743L24.4321 49.2915C25.8029 50.6617 25.8029 52.8917 24.4323 54.2619ZM31.833 41.8904L26.918 46.8056L12.0019 31.8895L31.8886 12.0024L46.8045 26.9186L41.8805 31.8427C41.8645 31.8578 41.8489 31.8726 41.832 31.8893L31.8937 41.8278C31.8731 41.848 31.8533 41.8691 31.833 41.8904ZM38.1095 45.5574C38.106 45.5609 38.1026 45.5642 38.0991 45.5678L36.8613 46.8056C36.5292 47.1375 36.0878 47.3203 35.6178 47.3203C35.1479 47.3203 34.7064 47.1375 34.3745 46.8054C34.0421 46.4732 33.8591 46.0313 33.8591 45.5611C33.8591 45.1009 34.0347 44.6679 34.3534 44.3413L44.338 34.3568C45.0223 33.6912 46.1287 33.6995 46.8049 34.375C47.1371 34.7073 47.3201 35.1492 47.3201 35.6194C47.3201 36.0893 47.1376 36.5299 46.8047 36.862L45.5741 38.0926C45.5656 38.1009 45.5572 38.1093 45.5489 38.1178L38.1095 45.5574ZM41.7496 46.8889L46.887 41.7515L68.6385 60.7245L60.7013 68.6619L41.7496 46.8889ZM63.0147 71.3201L71.2939 63.0408L73.9494 65.3571L65.3282 73.9784L63.0147 71.3201ZM85.6435 82.747C84.509 84.7725 82.591 86.1093 80.3813 86.4152C78.1766 86.7203 76.0104 85.9942 74.4386 84.423C74.3034 84.288 74.1741 84.1472 74.0535 84.0045C74.0478 83.9978 74.0422 83.9911 74.0364 83.9846L67.6415 76.6366L76.6048 67.6732L83.9436 74.0746C83.9491 74.0795 83.9547 74.0843 83.9605 74.0892C84.5098 74.5562 84.9973 75.1172 85.4109 75.7581C86.7402 77.8121 86.8333 80.6211 85.6435 82.747Z" fill="#ffffff"/>
<path d="M33.1316 18.2172C32.445 17.5308 31.3323 17.5308 30.6457 18.2172L23.1877 25.6753C22.5012 26.3617 22.5012 27.4747 23.1877 28.161C23.531 28.5043 23.9808 28.6759 24.4306 28.6759C24.8804 28.6759 25.3303 28.5041 25.6736 28.161L33.1316 20.7029C33.8181 20.0167 33.8181 18.9038 33.1316 18.2172Z" fill="#ffffff"/>
</g>
<defs>
<clipPath id="clip0_1433_16459">
<rect width="90" height="90" fill="#ffffff"/>
</clipPath>
</defs>
</svg>
