<svg width="90" height="70" viewBox="0 0 90 70" fill="none" xmlns="http://www.w3.org/2000/svg">
<path d="M88.3643 73.85C87.7674 72.9249 87.0551 72.1068 86.247 71.4184L78.0337 64.2548C77.9697 64.1585 77.8955 64.0671 77.8106 63.9822C77.6679 63.8396 77.5061 63.7284 77.3342 63.645L72.3672 59.3129L49.3767 39.2578C50.3178 38.274 50.836 36.9874 50.836 35.6193C50.836 34.2099 50.2874 32.8854 49.2902 31.8883C48.8553 31.454 48.361 31.1124 47.8328 30.8623L49.9598 28.7353C50.5543 28.8934 51.1651 28.9742 51.7765 28.9742C53.5767 28.9741 55.377 28.2889 56.7474 26.9185C58.076 25.5901 58.8076 23.8244 58.8076 21.9465C58.8076 20.0686 58.076 18.3029 56.7476 16.9745L41.8329 2.06014C40.5045 0.731755 38.7386 0.000152588 36.8602 0.000152588C34.9827 0.000152588 33.2173 0.731755 31.8891 2.06014C30.0532 3.896 29.4489 6.50266 30.0722 8.84794L8.85099 30.069C8.26458 29.9131 7.65444 29.8308 7.03112 29.8308C5.15237 29.8308 3.38735 30.5619 2.06002 31.889C-0.681466 34.6305 -0.681466 39.0913 2.06002 41.833L16.9746 56.7477C18.3455 58.1185 20.146 58.8038 21.9465 58.8038C23.7472 58.8038 25.5478 58.1185 26.9187 56.7477C28.7545 54.9117 29.3589 52.3052 28.7356 49.9599L30.8581 47.8372C31.1132 48.3698 31.4593 48.8613 31.8893 49.2911C32.8852 50.287 34.2094 50.8357 35.6185 50.8357C36.9852 50.8357 38.2712 50.3183 39.2564 49.3783L63.7439 77.5128C63.8114 77.6183 63.8901 77.7186 63.9822 77.8107C64.0137 77.8422 64.0471 77.8709 64.0803 77.8993L71.3772 86.2831C71.5586 86.4972 71.7525 86.7078 71.9537 86.909C73.9578 88.9124 76.6049 89.9996 79.384 89.9996C79.8739 89.9996 80.3684 89.9659 80.8636 89.8973C84.1733 89.4392 87.0338 87.4592 88.7111 84.4642C90.5486 81.1819 90.4118 77.0146 88.3643 73.85ZM34.3752 4.54604C35.0394 3.88176 35.9222 3.51578 36.8604 3.51578C37.7997 3.51578 38.683 3.88176 39.3471 4.54604L54.2618 19.4606C54.9261 20.1249 55.2919 21.0078 55.2919 21.9467C55.2919 22.8855 54.9261 23.7685 54.2617 24.4327C52.8915 25.8033 50.6615 25.8033 49.2913 24.4327L34.376 9.5175C34.3757 9.51714 34.3755 9.51697 34.3752 9.51662C33.0046 8.14622 33.0046 5.91643 34.3752 4.54604ZM24.4328 54.2618C23.062 55.6326 20.8312 55.6327 19.4605 54.2618L4.54592 39.3473C3.175 37.9764 3.175 35.746 4.54592 34.3749C5.20897 33.7117 6.09175 33.3464 7.03112 33.3464C7.97032 33.3464 8.85257 33.7115 9.51544 34.3742L24.4326 49.2914C25.8034 50.6616 25.8034 52.8916 24.4328 54.2618ZM31.8335 41.8903L26.9185 46.8055L12.0024 31.8894L31.8891 12.0023L46.805 26.9185L41.881 31.8426C41.865 31.8577 41.8494 31.8725 41.8325 31.8892L31.8942 41.8277C31.8736 41.8479 31.8538 41.869 31.8335 41.8903ZM38.11 45.5573C38.1065 45.5608 38.1031 45.5641 38.0996 45.5677L36.8618 46.8055C36.5297 47.1374 36.0883 47.3202 35.6183 47.3202C35.1484 47.3202 34.7069 47.1374 34.375 46.8053C34.0426 46.4731 33.8596 46.0312 33.8596 45.561C33.8596 45.1008 34.0352 44.6678 34.3539 44.3412L44.3385 34.3567C45.0228 33.6912 46.1291 33.6994 46.8054 34.3749C47.1376 34.7072 47.3206 35.1491 47.3206 35.6193C47.3206 36.0892 47.1381 36.5299 46.8052 36.8619L45.5746 38.0925C45.5661 38.1008 45.5577 38.1092 45.5494 38.1177L38.11 45.5573ZM41.7501 46.8888L46.8875 41.7514L68.639 60.7244L60.7018 68.6618L41.7501 46.8888ZM63.0152 71.32L71.2944 63.0407L73.9499 65.357L65.3287 73.9784L63.0152 71.32ZM85.6439 82.7469C84.5094 84.7724 82.5915 86.1092 80.3817 86.4151C78.1771 86.7202 76.0109 85.9941 74.4391 84.4229C74.3039 84.2879 74.1745 84.1471 74.054 84.0044C74.0483 83.9977 74.0427 83.9911 74.0369 83.9846L67.642 76.6365L76.6053 67.6731L83.9441 74.0745C83.9496 74.0794 83.9552 74.0842 83.961 74.0891C84.5103 74.5562 84.9978 75.1171 85.4114 75.758C86.7406 77.812 86.8338 80.621 85.6439 82.7469Z" fill="#ffffff"/>
</svg>
