<svg width="90" height="90" viewBox="0 0 90 90" fill="none" xmlns="http://www.w3.org/2000/svg">
<path d="M69.1068 59.9104H52.5577V34.3345C52.5577 33.5037 53.2313 32.8301 54.0622 32.8301H69.1068V38.5805L89.9614 25.3077L69.1068 12.0357V17.7854H52.4688C51.6967 10.9375 45.9088 5.75927 39.0175 5.74972H20.964V0L0.109375 13.272L20.964 26.5448V20.7944H36.0086C36.8394 20.7944 37.5131 21.468 37.5131 22.2988V43.3613H20.964V37.6116L0.109375 50.8836L20.964 64.1564V58.4059H36.0086C36.8394 58.4059 37.5131 59.0796 37.5131 59.9104V89.9997H52.5577V74.955H69.1068V80.7055L89.9614 67.4327L69.1068 54.1607V59.9104ZM40.522 22.8241V22.2988C40.522 19.8063 38.5011 17.7854 36.0086 17.7854H17.955V21.0625L5.71144 13.272L17.955 5.48233V8.75865H39.0175C44.2861 8.76526 48.7414 12.6586 49.454 17.8787C49.263 17.903 49.0794 17.9456 48.8898 17.9757C48.6687 18.0117 48.4388 18.0418 48.2265 18.0881C48.0142 18.1351 47.7931 18.1968 47.5778 18.2548C47.3626 18.3136 47.1474 18.3621 46.9387 18.4297C46.7294 18.4973 46.5237 18.5803 46.3173 18.6567C46.1108 18.7338 45.9037 18.8073 45.7031 18.8932C45.5033 18.9792 45.3123 19.0798 45.1169 19.176C44.9208 19.2723 44.7195 19.3641 44.527 19.4765C44.3346 19.5896 44.1612 19.6976 43.979 19.8093C43.7976 19.9209 43.6014 20.0348 43.42 20.1597C43.2378 20.2845 43.0769 20.4153 42.9065 20.5431C42.7368 20.6717 42.5546 20.8024 42.3864 20.942C42.2174 21.0823 42.0669 21.2307 41.9089 21.3769C41.751 21.5231 41.5857 21.6641 41.4322 21.8191C41.2786 21.9741 41.1317 22.1394 40.9943 22.3025C40.8577 22.4648 40.7027 22.6154 40.5675 22.7807C40.5536 22.791 40.5374 22.8064 40.522 22.8241ZM51.0532 20.7944H72.1157V17.518L84.3593 25.3077L72.1157 33.0982V29.8211H54.0622C51.5697 29.8211 49.5488 31.842 49.5488 34.3345V48.3999C49.5355 48.3823 49.5172 48.3669 49.504 48.3492C49.3622 48.1759 49.2028 48.015 49.0522 47.8497C48.9016 47.6837 48.7767 47.5324 48.6298 47.3832C48.4821 47.2341 48.2985 47.0821 48.1332 46.9226C47.9679 46.7632 47.832 46.6369 47.6711 46.5032C47.5103 46.3688 47.3134 46.2277 47.1312 46.0911C46.949 45.9537 46.805 45.8347 46.6317 45.7179C46.459 45.6004 46.2467 45.477 46.0528 45.3579C45.8581 45.2389 45.7017 45.1339 45.5187 45.0333C45.3351 44.9326 45.111 44.8298 44.9061 44.7321C44.7011 44.6344 44.5314 44.5425 44.3375 44.4581C44.1436 44.3743 43.91 44.2957 43.6947 44.2164C43.4795 44.1363 43.2995 44.0658 43.0931 43.9967C42.8874 43.9277 42.6509 43.8777 42.4283 43.819C42.2057 43.7602 42.0118 43.7014 41.7965 43.6566C41.5813 43.6111 41.3447 43.5809 41.1192 43.545C40.9179 43.5134 40.7189 43.47 40.5176 43.4473V31.3256C40.5242 25.5105 45.2381 20.7988 51.0532 20.7944ZM49.5488 86.9907H40.522V59.9104C40.522 57.4179 38.5011 55.397 36.0086 55.397H17.955V58.6741L5.71144 50.8836L17.955 43.0939V46.3702H39.0175C44.8312 46.3768 49.5422 51.0886 49.5488 56.9015V86.9907ZM72.1157 59.643L84.3593 67.4327L72.1157 75.2232V71.9461H52.5577V62.9193H72.1157V59.643Z" fill="#ffffff"/>
</svg>
