<svg width="89" height="52" viewBox="0 0 89 52" fill="none" xmlns="http://www.w3.org/2000/svg">
<path d="M7.41667 16.7143V20.4286C7.41667 24.362 9.46552 27.8163 12.5471 29.7997C11.6386 30.901 10.3055 31.5714 8.83325 31.5714H8.56254C3.84183 31.5714 0 35.4176 0 40.1477V50.1429C0 51.1699 0.830667 52 1.85417 52H35.2292C36.2527 52 37.0833 51.1699 37.0833 50.1429V44.5714H51.9167V50.1429C51.9167 51.1699 52.7473 52 53.7708 52H87.1458C88.1693 52 89 51.1699 89 50.1429V40.1477C89 35.4176 85.1582 31.5714 80.4375 31.5714H80.1667C78.6945 31.5714 77.3633 30.901 76.4547 29.7997C79.5345 27.8163 81.5833 24.362 81.5833 20.4286V16.7143C81.5833 10.569 76.5938 5.57143 70.4583 5.57143C64.3229 5.57143 59.3333 10.569 59.3333 16.7143V20.4286C59.3333 24.362 61.3822 27.8163 64.4638 29.7997C63.9076 30.4739 63.19 30.9697 62.3742 31.2594C61.0762 28.1729 58.0261 26 54.4791 26H54.2084C52.7362 26 51.4049 25.3296 50.4964 24.2283C53.5761 22.2449 55.625 18.7906 55.625 14.8571V11.1429C55.625 4.99757 50.6354 0 44.5 0C38.3646 0 33.375 4.99757 33.375 11.1429V14.8571C33.375 18.7906 35.4239 22.2449 38.5055 24.2283C37.5969 25.3296 36.2638 26 34.7916 26H34.5209C30.972 26 27.9237 28.1729 26.6258 31.2613C25.81 30.9716 25.0924 30.4757 24.5362 29.8016C27.6178 27.8163 29.6667 24.362 29.6667 20.4286V16.7143C29.6667 10.569 24.6771 5.57143 18.5417 5.57143C12.4062 5.57143 7.41667 10.569 7.41667 16.7143ZM33.375 48.2857H3.70833V40.1477C3.70833 37.4679 5.88512 35.2857 8.56254 35.2857H8.83325C9.30977 35.2857 9.77517 35.2356 10.2331 35.1613L10.9006 35.8299C12.9402 37.8746 15.6547 39 18.5417 39C21.3266 39 23.9447 37.9433 25.9583 36.0341V42.7143C25.9583 43.7413 26.789 44.5714 27.8125 44.5714H33.375V48.2857ZM80.4375 35.2857C83.1149 35.2857 85.2917 37.4679 85.2917 40.1477V48.2857H55.625V44.5714H61.1875C62.211 44.5714 63.0417 43.7413 63.0417 42.7143V36.0341C65.0553 37.9433 67.6734 39 70.4583 39C73.3453 39 76.0598 37.8746 78.0993 35.8299L78.7669 35.1613C79.2248 35.2356 79.6902 35.2857 80.1667 35.2857H80.4375ZM63.0417 16.7143C63.0417 12.6174 66.368 9.28571 70.4583 9.28571C74.5486 9.28571 77.875 12.6174 77.875 16.7143V20.4286C77.875 24.5254 74.5486 27.8571 70.4583 27.8571C66.368 27.8571 63.0417 24.5254 63.0417 20.4286V16.7143ZM70.4583 31.5714C71.3131 31.5714 72.1419 31.4656 72.9429 31.2817C73.5066 32.1787 74.2149 32.9439 75.0344 33.5623C72.4516 35.7296 68.4632 35.7296 65.8822 33.5623C66.7018 32.9439 67.4119 32.1787 67.9737 31.2817C68.7747 31.4656 69.6036 31.5714 70.4583 31.5714ZM37.0833 11.1429C37.0833 7.046 40.4097 3.71429 44.5 3.71429C48.5903 3.71429 51.9167 7.046 51.9167 11.1429V14.8571C51.9167 18.954 48.5903 22.2857 44.5 22.2857C40.4097 22.2857 37.0833 18.954 37.0833 14.8571V11.1429ZM44.5 26C45.3548 26 46.1836 25.8941 46.9846 25.7103C47.5482 26.6073 48.2565 27.3724 49.0761 27.9909C46.4932 30.1581 42.5049 30.1581 39.9239 27.9909C40.7435 27.3724 41.4536 26.6073 42.0154 25.7103C42.8164 25.8941 43.6452 26 44.5 26ZM29.6667 34.5763C29.6667 31.8964 31.8435 29.7143 34.5209 29.7143H34.7916C35.2681 29.7143 35.7335 29.6641 36.1915 29.5899L36.859 30.2584C38.8986 32.3031 41.6131 33.4286 44.5 33.4286C47.3869 33.4286 50.1014 32.3031 52.141 30.2584L52.8085 29.5899C53.2665 29.6641 53.7319 29.7143 54.2084 29.7143H54.4791C57.1565 29.7143 59.3333 31.8964 59.3333 34.5763V40.8571H29.6667V34.5763ZM23.1178 33.5604C20.5349 35.7277 16.5466 35.7277 13.9656 33.5604C14.7851 32.942 15.4953 32.1769 16.0571 31.2799C16.8581 31.4656 17.6869 31.5714 18.5417 31.5714C19.3964 31.5714 20.2253 31.4656 21.0262 31.2817C21.5881 32.1787 22.2982 32.9439 23.1178 33.5604ZM25.9583 16.7143V20.4286C25.9583 24.5254 22.632 27.8571 18.5417 27.8571C14.4514 27.8571 11.125 24.5254 11.125 20.4286V16.7143C11.125 12.6174 14.4514 9.28571 18.5417 9.28571C22.632 9.28571 25.9583 12.6174 25.9583 16.7143Z" fill="#ffffff"/>
</svg>
