<svg width="90" height="81" viewBox="0 0 90 81" fill="none" xmlns="http://www.w3.org/2000/svg">
<path d="M89.6702 72.642L81.6927 48.6053C80.8543 46.0798 78.5032 44.3831 75.8418 44.3831H71.5503C71.5317 44.1805 71.5008 43.9773 71.4493 43.7768C71.1966 42.7942 70.5766 41.9688 69.7032 41.4532L68.8765 40.9643L72.995 34.4473C74.7871 31.6122 77.4843 29.4499 80.7959 28.1947C83.7726 27.0659 86.3049 24.9325 87.9274 22.1873C89.9057 18.8385 90.4145 14.9328 89.3591 11.1879C88.3044 7.44497 85.8263 4.37773 82.3814 2.55057C79.2881 0.910169 75.6997 0.492002 72.2781 1.37297C68.8552 2.25393 65.915 4.35232 63.9978 7.28224C62.1068 10.173 61.3392 13.6399 61.8363 17.0436C62.3403 20.4919 61.7676 23.8366 60.1808 26.7157L56.3932 33.5883L55.5658 33.0994C53.7634 32.0344 51.4302 32.6339 50.3652 34.437L48.891 36.9309L45.1652 34.7288C42.8176 33.3418 39.7785 34.1232 38.3908 36.4715L36.1468 40.2701C35.6524 41.1057 35.9298 42.1837 36.7655 42.6774L39.6521 44.3824H14.1577C11.4969 44.3824 9.14586 46.0798 8.30747 48.6053L0.330021 72.642C-0.320232 74.601 -0.000255397 76.6842 1.20755 78.3583C2.41536 80.0316 4.29265 80.9923 6.35671 80.9923H83.6428C85.7068 80.9923 87.5841 80.0316 88.7919 78.3583C89.9997 76.6842 90.3197 74.601 89.6702 72.642ZM63.2597 28.4124C65.2194 24.8562 65.9301 20.7487 65.3141 16.5348C64.9413 13.9812 65.5188 11.3788 66.9394 9.20622C69.8996 4.68329 75.9585 3.12391 80.7341 5.65626C83.3221 7.02955 85.1836 9.33188 85.9753 12.1416C86.7677 14.9528 86.3859 17.8854 84.9007 20.3992C83.6654 22.4894 81.8149 24.0487 79.5497 24.9077C75.5198 26.4348 72.2259 29.0846 70.0238 32.5686L65.8484 39.1756L65.5263 38.9847L59.4207 35.3777L63.2597 28.4124ZM51.9177 38.7189L53.3912 36.2257C53.4407 36.142 53.5121 36.109 53.5636 36.0959C53.6158 36.0822 53.694 36.0767 53.7778 36.1262L60.8461 40.303L65.5284 43.0695C65.5291 43.0695 65.5291 43.0695 65.5291 43.0702L67.9152 44.4799C67.9982 44.5286 68.0312 44.6007 68.0443 44.6522C68.058 44.7037 68.0635 44.7827 68.014 44.8658L67.7909 45.2441C67.7902 45.2448 67.7895 45.2455 67.7888 45.2469L66.5405 47.3597L51.9177 38.7189ZM41.4175 38.2596C41.8185 37.5805 42.6974 37.3546 43.3765 37.7556L48.6156 40.851L48.6163 40.8517L57.4411 46.066L71.5056 54.3758C71.8345 54.5701 72.068 54.8812 72.1628 55.2513C72.2582 55.6214 72.2033 56.0059 72.0089 56.3348L70.6583 58.6207L46.9759 44.6275C46.9759 44.6268 46.9759 44.6268 46.9752 44.6268L40.0669 40.5447L41.4175 38.2596ZM85.9417 76.3011C85.4026 77.0482 84.5643 77.4766 83.6428 77.4766H6.35671C5.43523 77.4766 4.59752 77.0482 4.05782 76.3011C3.5188 75.554 3.37598 74.6236 3.66643 73.7488L11.6439 49.7128C12.0037 48.6272 13.0137 47.898 14.1577 47.898H45.6012L70.3837 62.5414C70.4448 62.5778 70.5086 62.6087 70.5732 62.6369C70.5917 62.6451 70.6109 62.6526 70.6302 62.6602C70.6789 62.6794 70.729 62.6966 70.7792 62.7117C70.7984 62.7172 70.8169 62.7234 70.8355 62.7282C70.9021 62.7453 70.97 62.7598 71.038 62.7694C71.0504 62.7708 71.0627 62.7708 71.0751 62.7728C71.1321 62.779 71.1891 62.7831 71.2468 62.7838C71.2571 62.7845 71.2674 62.7859 71.2777 62.7859C71.2907 62.7859 71.3038 62.7838 71.3168 62.7838C71.3621 62.7824 71.4074 62.7797 71.4528 62.7749C71.4747 62.7728 71.4967 62.7714 71.5187 62.768C71.5846 62.7591 71.6505 62.7474 71.7157 62.7302C72.1669 62.6149 72.5541 62.3237 72.791 61.9221L75.0357 58.1235C75.6324 57.1135 75.8473 55.9503 75.6578 54.8064C75.6337 54.6622 75.6042 54.5186 75.5678 54.3758C75.2389 53.0966 74.4307 52.0213 73.2937 51.3498L69.5672 49.1477L70.3061 47.8987H75.8418C76.9857 47.8987 77.9958 48.6272 78.3563 49.7128L86.3337 73.7488V73.7495C86.6235 74.6236 86.4807 75.554 85.9417 76.3011Z" fill="#ffffff"/>
</svg>
